<?xml version="1.0" standalone="no"?>
<!DOCTYPE svg PUBLIC "-//W3C//DTD SVG 20010904//EN"
 "http://www.w3.org/TR/2001/REC-SVG-20010904/DTD/svg10.dtd">
<svg version="1.0" xmlns="http://www.w3.org/2000/svg"
 width="240.000000pt" height="240.000000pt" viewBox="0 0 240.000000 240.000000"
 preserveAspectRatio="xMidYMid meet">
<metadata>
Created by potrace 1.11, written by Peter Selinger 2001-2013
</metadata>
<g transform="translate(0.000000,240.000000) scale(0.100000,-0.100000)"
fill="#000000" stroke="none">
<path d="M660 2052 c-213 -15 -360 -60 -360 -109 0 -7 -11 -18 -25 -23 -13 -5
-35 -21 -47 -35 -12 -14 -42 -31 -65 -37 -25 -6 -53 -22 -66 -37 l-22 -27 0
-682 0 -682 28 -27 c21 -22 36 -27 69 -27 38 1 113 10 113 14 0 2 30 8 90 17
74 11 371 8 440 -5 136 -26 235 -70 235 -103 0 -17 74 -42 133 -44 84 -4 143
11 167 44 11 14 24 31 30 38 9 11 125 50 175 59 109 19 160 22 285 19 159 -3
214 -9 306 -30 77 -18 121 -12 153 20 l26 25 0 683 1 682 -34 33 c-19 18 -44
32 -57 32 -15 0 -31 10 -40 24 -8 13 -33 31 -55 41 -22 10 -40 23 -40 30 0 32
-74 69 -160 80 -16 2 -39 7 -51 10 -11 4 -33 9 -47 10 -41 6 -244 6 -268 1
-12 -2 -39 -7 -60 -11 -22 -4 -43 -8 -49 -9 -57 -15 -79 -24 -140 -53 -38 -18
-82 -41 -97 -51 -26 -16 -29 -16 -55 1 -130 85 -352 141 -513 129z"/>
</g>
</svg>
